<svg viewBox="0 0 48 48" fill="none" xmlns="http://www.w3.org/2000/svg">
  <defs>
    <radialGradient id="sun-grad" cx="50%" cy="50%" r="50%">
      <stop offset="0%" stop-color="#FFD95A"/>
      <stop offset="100%" stop-color="#FF9520"/>
    </radialGradient>
    <linearGradient id="cloud-grad" x1="0" y1="0" x2="0" y2="1">
      <stop offset="0%" stop-color="#ffffff"/>
      <stop offset="100%" stop-color="#dce8f5"/>
    </linearGradient>
  </defs>
  <g stroke="#FFB830" stroke-width="2" stroke-linecap="round">
    <line x1="20" y1="4"  x2="20" y2="7"/>
    <line x1="20" y1="28" x2="20" y2="25" opacity=".35"/>
    <line x1="4"  y1="16" x2="7"  y2="16"/>
    <line x1="33" y1="16" x2="36" y2="16" opacity=".35"/>
    <line x1="8.3"  y1="7.3"  x2="10.4" y2="9.4"/>
    <line x1="29.6" y1="22.6" x2="31.7" y2="24.7" opacity=".35"/>
    <line x1="31.7" y1="7.3"  x2="29.6" y2="9.4" opacity=".5"/>
    <line x1="8.3"  y1="24.7" x2="10.4" y2="22.6" opacity=".2"/>
  </g>
  <circle cx="20" cy="16" r="9" fill="url(#sun-grad)"/>
  <path d="M38 33a6 6 0 0 0-6-6 5.97 5.97 0 0 0-1.1.1A7 7 0 0 0 18 30a5 5 0 0 0 0 10h20a4 4 0 0 0 0-8z" fill="url(#cloud-grad)" filter="drop-shadow(0 2px 4px rgba(0,0,0,.12))"/>
</svg>